<mxfile host="app.diagrams.net" agent="Mozilla/5.0 (Windows NT 10.0; Win64; x64; rv:143.0) Gecko/20100101 Firefox/143.0" version="28.2.3">
  <diagram name="Page-1" id="k3WtfX2gNcAvrSxi5svy">
    <mxGraphModel dx="734" dy="827" grid="1" gridSize="10" guides="1" tooltips="1" connect="1" arrows="1" fold="1" page="1" pageScale="1" pageWidth="850" pageHeight="1100" math="0" shadow="0">
      <root>
        <mxCell id="0" />
        <mxCell id="1" parent="0" />
        <mxCell id="u5fZSMpgGv7tBmWX_H90-4" style="edgeStyle=orthogonalEdgeStyle;rounded=0;orthogonalLoop=1;jettySize=auto;html=1;exitX=0.5;exitY=1;exitDx=0;exitDy=0;entryX=0.5;entryY=0;entryDx=0;entryDy=0;" edge="1" parent="1" source="u5fZSMpgGv7tBmWX_H90-1" target="u5fZSMpgGv7tBmWX_H90-2">
          <mxGeometry relative="1" as="geometry" />
        </mxCell>
        <mxCell id="u5fZSMpgGv7tBmWX_H90-1" value="START" style="ellipse;whiteSpace=wrap;html=1;" vertex="1" parent="1">
          <mxGeometry x="120" y="60" width="120" height="80" as="geometry" />
        </mxCell>
        <mxCell id="u5fZSMpgGv7tBmWX_H90-5" style="edgeStyle=orthogonalEdgeStyle;rounded=0;orthogonalLoop=1;jettySize=auto;html=1;exitX=0.5;exitY=1;exitDx=0;exitDy=0;entryX=0.5;entryY=0;entryDx=0;entryDy=0;" edge="1" parent="1" source="u5fZSMpgGv7tBmWX_H90-2" target="u5fZSMpgGv7tBmWX_H90-3">
          <mxGeometry relative="1" as="geometry" />
        </mxCell>
        <mxCell id="u5fZSMpgGv7tBmWX_H90-2" value="Input search_word" style="shape=parallelogram;perimeter=parallelogramPerimeter;whiteSpace=wrap;html=1;fixedSize=1;" vertex="1" parent="1">
          <mxGeometry x="115" y="190" width="130" height="60" as="geometry" />
        </mxCell>
        <mxCell id="u5fZSMpgGv7tBmWX_H90-7" style="edgeStyle=orthogonalEdgeStyle;rounded=0;orthogonalLoop=1;jettySize=auto;html=1;exitX=0.5;exitY=1;exitDx=0;exitDy=0;entryX=0.5;entryY=0;entryDx=0;entryDy=0;" edge="1" parent="1" source="u5fZSMpgGv7tBmWX_H90-3" target="u5fZSMpgGv7tBmWX_H90-6">
          <mxGeometry relative="1" as="geometry" />
        </mxCell>
        <mxCell id="u5fZSMpgGv7tBmWX_H90-3" value="Turn to random dictionary page" style="rounded=0;whiteSpace=wrap;html=1;" vertex="1" parent="1">
          <mxGeometry x="120" y="290" width="120" height="60" as="geometry" />
        </mxCell>
        <mxCell id="u5fZSMpgGv7tBmWX_H90-10" style="edgeStyle=orthogonalEdgeStyle;rounded=0;orthogonalLoop=1;jettySize=auto;html=1;exitX=0.5;exitY=1;exitDx=0;exitDy=0;entryX=0.5;entryY=0;entryDx=0;entryDy=0;" edge="1" parent="1" source="u5fZSMpgGv7tBmWX_H90-6" target="u5fZSMpgGv7tBmWX_H90-9">
          <mxGeometry relative="1" as="geometry" />
        </mxCell>
        <mxCell id="u5fZSMpgGv7tBmWX_H90-16" style="edgeStyle=orthogonalEdgeStyle;rounded=0;orthogonalLoop=1;jettySize=auto;html=1;exitX=1;exitY=0.5;exitDx=0;exitDy=0;entryX=0;entryY=0.5;entryDx=0;entryDy=0;" edge="1" parent="1" source="u5fZSMpgGv7tBmWX_H90-6" target="u5fZSMpgGv7tBmWX_H90-13">
          <mxGeometry relative="1" as="geometry" />
        </mxCell>
        <mxCell id="u5fZSMpgGv7tBmWX_H90-6" value="Is search_word&lt;br&gt;on page?" style="rhombus;whiteSpace=wrap;html=1;" vertex="1" parent="1">
          <mxGeometry x="125" y="395" width="110" height="110" as="geometry" />
        </mxCell>
        <mxCell id="u5fZSMpgGv7tBmWX_H90-8" value="END" style="ellipse;whiteSpace=wrap;html=1;" vertex="1" parent="1">
          <mxGeometry x="120" y="640" width="120" height="80" as="geometry" />
        </mxCell>
        <mxCell id="u5fZSMpgGv7tBmWX_H90-11" style="edgeStyle=orthogonalEdgeStyle;rounded=0;orthogonalLoop=1;jettySize=auto;html=1;exitX=0.5;exitY=1;exitDx=0;exitDy=0;entryX=0.5;entryY=0;entryDx=0;entryDy=0;" edge="1" parent="1" source="u5fZSMpgGv7tBmWX_H90-9" target="u5fZSMpgGv7tBmWX_H90-8">
          <mxGeometry relative="1" as="geometry" />
        </mxCell>
        <mxCell id="u5fZSMpgGv7tBmWX_H90-9" value="Word Found!" style="rounded=0;whiteSpace=wrap;html=1;" vertex="1" parent="1">
          <mxGeometry x="120" y="550" width="120" height="60" as="geometry" />
        </mxCell>
        <mxCell id="u5fZSMpgGv7tBmWX_H90-17" style="edgeStyle=orthogonalEdgeStyle;rounded=0;orthogonalLoop=1;jettySize=auto;html=1;exitX=0.5;exitY=1;exitDx=0;exitDy=0;entryX=0.5;entryY=0;entryDx=0;entryDy=0;" edge="1" parent="1" source="u5fZSMpgGv7tBmWX_H90-13" target="u5fZSMpgGv7tBmWX_H90-14">
          <mxGeometry relative="1" as="geometry" />
        </mxCell>
        <mxCell id="u5fZSMpgGv7tBmWX_H90-21" value="Yes" style="edgeLabel;html=1;align=center;verticalAlign=middle;resizable=0;points=[];" vertex="1" connectable="0" parent="u5fZSMpgGv7tBmWX_H90-17">
          <mxGeometry x="-0.0531" y="3" relative="1" as="geometry">
            <mxPoint y="-18" as="offset" />
          </mxGeometry>
        </mxCell>
        <mxCell id="u5fZSMpgGv7tBmWX_H90-18" style="edgeStyle=orthogonalEdgeStyle;rounded=0;orthogonalLoop=1;jettySize=auto;html=1;exitX=0.5;exitY=1;exitDx=0;exitDy=0;entryX=0.5;entryY=0;entryDx=0;entryDy=0;" edge="1" parent="1" source="u5fZSMpgGv7tBmWX_H90-13" target="u5fZSMpgGv7tBmWX_H90-15">
          <mxGeometry relative="1" as="geometry" />
        </mxCell>
        <mxCell id="u5fZSMpgGv7tBmWX_H90-22" value="No" style="edgeLabel;html=1;align=center;verticalAlign=middle;resizable=0;points=[];" vertex="1" connectable="0" parent="u5fZSMpgGv7tBmWX_H90-18">
          <mxGeometry x="0.0781" y="3" relative="1" as="geometry">
            <mxPoint x="-11" y="-12" as="offset" />
          </mxGeometry>
        </mxCell>
        <mxCell id="u5fZSMpgGv7tBmWX_H90-13" value="Do the words&lt;br&gt;on the page come before&lt;br&gt;&amp;nbsp;search_word?" style="rhombus;whiteSpace=wrap;html=1;" vertex="1" parent="1">
          <mxGeometry x="360" y="400" width="160" height="160" as="geometry" />
        </mxCell>
        <mxCell id="u5fZSMpgGv7tBmWX_H90-19" style="edgeStyle=orthogonalEdgeStyle;rounded=0;orthogonalLoop=1;jettySize=auto;html=1;exitX=0.5;exitY=1;exitDx=0;exitDy=0;entryX=0.5;entryY=1;entryDx=0;entryDy=0;endArrow=none;endFill=0;" edge="1" parent="1" source="u5fZSMpgGv7tBmWX_H90-14" target="u5fZSMpgGv7tBmWX_H90-15">
          <mxGeometry relative="1" as="geometry" />
        </mxCell>
        <mxCell id="u5fZSMpgGv7tBmWX_H90-14" value="Flip page left" style="rounded=0;whiteSpace=wrap;html=1;" vertex="1" parent="1">
          <mxGeometry x="310" y="650" width="120" height="60" as="geometry" />
        </mxCell>
        <mxCell id="u5fZSMpgGv7tBmWX_H90-20" style="edgeStyle=elbowEdgeStyle;rounded=0;orthogonalLoop=1;jettySize=auto;html=1;exitX=0.5;exitY=1;exitDx=0;exitDy=0;" edge="1" parent="1">
          <mxGeometry relative="1" as="geometry">
            <mxPoint x="180" y="370" as="targetPoint" />
            <mxPoint x="510" y="730" as="sourcePoint" />
            <Array as="points">
              <mxPoint x="600" y="570" />
            </Array>
          </mxGeometry>
        </mxCell>
        <mxCell id="u5fZSMpgGv7tBmWX_H90-15" value="Flip page right" style="rounded=0;whiteSpace=wrap;html=1;" vertex="1" parent="1">
          <mxGeometry x="450" y="650" width="120" height="60" as="geometry" />
        </mxCell>
      </root>
    </mxGraphModel>
  </diagram>
</mxfile>
